<?xml version="1.0" encoding="UTF-8"?>
<svg width="62px" height="62px" viewBox="0 0 62 62" version="1.1" xmlns="http://www.w3.org/2000/svg" xmlns:xlink="http://www.w3.org/1999/xlink">
    <!-- Generator: Sketch 50.1 (55044) - http://www.bohemiancoding.com/sketch -->
    <title>01d</title>
    <desc>Created with Sketch.</desc>
    <defs></defs>
    <g id="01d" stroke="none" stroke-width="1" fill="none" fill-rule="evenodd">
        <g fill="#FFFFFF" fill-rule="nonzero" id="Shape">
            <path d="M13.2957037,31 C13.2957037,40.8204444 21.2554074,48.7777778 31.0734815,48.7777778 C40.8915556,48.7777778 48.8512593,40.8204444 48.8512593,31 C48.8512593,21.1795556 40.8939259,13.2222222 31.0734815,13.2222222 C21.2554074,13.2222222 13.2957037,21.1795556 13.2957037,31 Z M31.0734815,0.777777778 L26.0743704,10.7783704 L36.074963,10.7783704 L31.0734815,0.777777778 Z M52.4352593,9.56474074 L41.8278519,13.098963 L48.8962963,20.1697778 L52.4352593,9.56474074 Z M20.3191111,13.098963 L9.71407407,9.56474074 L13.2482963,20.1721481 L20.3191111,13.098963 Z M10.7783704,25.925037 L0.777777778,30.9265185 L10.7783704,35.9256296 L10.7783704,25.925037 Z M51.2216296,36.074963 L61.2222222,31.0758519 L51.2216296,26.0767407 L51.2216296,36.074963 Z M31.0734815,61.2222222 L36.0725926,51.2216296 L26.072,51.2216296 L31.0734815,61.2222222 Z M41.8278519,48.901037 L52.4352593,52.4352593 L48.8986667,41.8278519 L41.8278519,48.901037 Z M9.71407407,52.4352593 L20.3214815,48.901037 L13.2506667,41.8302222 L9.71407407,52.4352593 Z"></path>
        </g>
    </g>
</svg>