<?xml version="1.0" encoding="UTF-8"?>
<svg width="62px" height="62px" viewBox="0 0 62 62" version="1.1" xmlns="http://www.w3.org/2000/svg" xmlns:xlink="http://www.w3.org/1999/xlink">
    <!-- Generator: Sketch 50.1 (55044) - http://www.bohemiancoding.com/sketch -->
    <title>02d</title>
    <desc>Created with Sketch.</desc>
    <defs></defs>
    <g id="02d" stroke="none" stroke-width="1" fill="none" fill-rule="evenodd">
        <g transform="translate(0.000000, 12.000000)" fill="#FFFFFF">
            <path d="M34.9146906,21.43164 C34.9146906,21.43164 35.7015607,10.814812 25.9995675,9.60386097 C17.6840427,8.75207635 15.1542308,16.5021631 15.1542308,16.5021631 C15.1542308,16.5021631 12.6507026,14.0868512 9.2535265,16.0589715 C6.21282393,17.9421239 6.75164103,21.3871561 6.75164103,21.3871561 C6.75164103,21.3871561 0,22.7035505 0,29.6084428 C0.18562906,36.620426 7.28881538,36.4457854 7.28881538,36.4457854 L33.8567692,36.5166302 C33.8567692,36.5166302 40.2157966,36.5907701 41.3739248,30.0203309 C41.8223915,22.8485351 34.9146906,21.43164 34.9146906,21.43164 Z" id="Path"></path>
            <g id="Group-6" transform="translate(33.384615, 0.000000)">
                <path d="M20.0017384,22.0227119 C20.0017384,15.1019834 14.4433083,9.49423881 7.58344055,9.49423881 C6.42274364,9.49423881 3.95564181,9.87510439 1.52165543,11.1463268 C1.52165543,11.1496677 0,12.1937072 0,12.1937072 C0,12.1937072 2.40914978,14.4003889 2.61612141,20.2470097 C2.61612141,20.3505784 8.99747073,22.0026664 8.99747073,28.6845187 C8.99747073,33.2782922 6.58004208,34.5411623 6.58004208,34.5411623 L7.58344055,34.551185 C7.58344055,34.551185 20.0017384,31.9419217 20.0017384,22.0227119 Z" id="Path"></path>
                <polygon id="Path" points="7.45231872 0.583578726 3.96029337 7.63126247 10.9459999 7.63126247"></polygon>
                <polygon id="Path" points="22.2606845 6.52401878 14.8511001 9.01467924 19.7902711 13.9976706 22.2606845 6.52401878"></polygon>
                <polygon id="Path" points="20.7915402 25.4509122 27.7772467 21.9279055 20.7915402 18.4048989 20.7915402 25.4509122"></polygon>
                <polygon id="Path" points="14.8511001 34.2803675 22.2606845 36.771028 19.7919269 29.2957057"></polygon>
            </g>
        </g>
    </g>
</svg>