<?xml version="1.0" encoding="UTF-8"?>
<svg width="62px" height="62px" viewBox="0 0 62 62" version="1.1" xmlns="http://www.w3.org/2000/svg" xmlns:xlink="http://www.w3.org/1999/xlink">
    <!-- Generator: Sketch 50.1 (55044) - http://www.bohemiancoding.com/sketch -->
    <title>04d</title>
    <desc>Created with Sketch.</desc>
    <defs></defs>
    <g id="04d" stroke="none" stroke-width="1" fill="none" fill-rule="evenodd">
        <g transform="translate(1.000000, 13.000000)" fill="#FFFFFF" id="Path">
            <path d="M36.6041111,19.7808182 C36.6041111,19.7808182 37.4290556,8.65027273 27.2576111,7.38072727 C18.5397222,6.48772727 15.8875,14.6128182 15.8875,14.6128182 C15.8875,14.6128182 13.2628333,12.0806364 9.70127778,14.1481818 C6.51344444,16.1224545 7.07833333,19.7341818 7.07833333,19.7341818 C7.07833333,19.7341818 0,21.1142727 0,28.3532727 C0.194611111,35.7045455 7.6415,35.5214545 7.6415,35.5214545 L35.495,35.5957273 C35.495,35.5957273 42.1617222,35.6734545 43.3758889,28.7850909 C43.8460556,21.2662727 36.6041111,19.7808182 36.6041111,19.7808182 Z"></path>
            <path d="M53.8263333,12.8734545 C53.8263333,12.8734545 54.6512778,1.74290909 44.4815556,0.471636364 C35.7636667,-0.421363636 33.0046667,7.81081818 33.0046667,7.81081818 C33.0046667,7.81081818 38.0835,10.7661818 38.2987778,18.7548182 C41.5279444,19.7272727 44.9689444,22.3993636 45.0774444,28.6607273 L52.7172222,28.6883636 C52.7172222,28.6883636 59.3839444,28.7660909 60.5981111,21.8777273 C61.0682778,14.3554545 53.8263333,12.8734545 53.8263333,12.8734545 Z"></path>
        </g>
    </g>
</svg>