<?xml version="1.0" encoding="UTF-8"?>
<svg width="62px" height="62px" viewBox="0 0 62 62" version="1.1" xmlns="http://www.w3.org/2000/svg" xmlns:xlink="http://www.w3.org/1999/xlink">
    <!-- Generator: Sketch 50.1 (55044) - http://www.bohemiancoding.com/sketch -->
    <title>09d</title>
    <desc>Created with Sketch.</desc>
    <defs></defs>
    <g id="09d" stroke="none" stroke-width="1" fill="none" fill-rule="evenodd">
        <g transform="translate(6.000000, 7.000000)" fill="#FFFFFF" fill-rule="nonzero" id="Shape">
            <path d="M41.8409623,14.6421899 C41.8409623,14.6421899 42.7732248,2.10043728 31.2805108,0.667983842 C21.4285009,-0.338236847 18.4312477,8.81700903 18.4312477,8.81700903 C18.4312477,8.81700903 15.4670812,5.96377977 11.4402522,8.29346287 C7.83770962,10.5180475 8.47608561,14.5876944 8.47608561,14.5876944 C8.47608561,14.5876944 0.476923077,16.144709 0.476923077,24.299573 C0.655979756,32.4466519 9.16506457,32.5283952 9.16506457,32.5283952 L40.4649507,32.5283952 C40.4649507,32.5283952 48.3823699,32.5361803 49.4975816,24.7880863 C50.0250203,16.3140344 41.8409623,14.6421899 41.8409623,14.6421899 Z M12.8474041,37.5205733 C12.4990221,36.8315943 12.1876192,35.9032244 11.9151416,34.7393559 C11.6465566,35.9032244 11.3370999,36.829648 10.9887179,37.5205733 C10.2569211,38.9744357 9.08721384,40.1052175 9.08721384,40.1052175 C8.15495135,41.1425785 7.68979323,42.1818857 7.68979323,43.221193 C7.68979323,44.3694913 8.10629464,45.3523567 8.93735119,46.1756282 C9.76840773,46.9969534 10.7610045,47.407616 11.9131954,47.407616 C13.0731712,47.407616 14.065768,46.9969534 14.8968246,46.1756282 C15.7298274,45.3523567 16.1443825,44.3694913 16.1443825,43.221193 C16.1443825,42.183832 15.6792244,41.1445248 14.7489082,40.1052175 C14.7489082,40.1052175 13.5811472,38.9744357 12.8474041,37.5205733 Z M26.4712819,37.5205733 C26.1228999,36.8315943 25.811497,35.9032244 25.5390194,34.7393559 C25.2684881,35.9032244 24.9609777,36.829648 24.6125957,37.5205733 C23.8807989,38.9744357 22.7091454,40.1052175 22.7091454,40.1052175 C21.7788291,41.1425785 21.313671,42.1818857 21.313671,43.221193 C21.313671,44.3694913 21.7282262,45.3523567 22.561229,46.1756282 C23.3903393,46.9969534 24.3829361,47.407616 25.5370731,47.407616 C26.697049,47.407616 27.6896458,46.9969534 28.5207024,46.1756282 C29.3537052,45.3523567 29.7682603,44.3694913 29.7682603,43.221193 C29.7682603,42.183832 29.3031022,41.1445248 28.3708397,40.1052175 C28.3708397,40.1052175 27.2030788,38.9744357 26.4712819,37.5205733 Z M40.0951597,37.5205733 C39.7467777,36.8315943 39.4353748,35.9032244 39.1628972,34.7393559 C38.8923659,35.9032244 38.5848555,36.829648 38.2364735,37.5205733 C37.5027304,38.9744357 36.3330232,40.1052175 36.3330232,40.1052175 C35.4027069,41.1425785 34.9375488,42.1818857 34.9375488,43.221193 C34.9375488,44.3694913 35.352104,45.3523567 36.1851068,46.1756282 C37.014217,46.9969534 38.0068139,47.407616 39.1609509,47.407616 C40.3209268,47.407616 41.3135236,46.9969534 42.1445802,46.1756282 C42.977583,45.3523567 43.3921381,44.3694913 43.3921381,43.221193 C43.3921381,42.183832 42.92698,41.1445248 41.9966638,40.1052175 C41.9966638,40.1052175 40.8269566,38.9744357 40.0951597,37.5205733 Z"></path>
        </g>
    </g>
</svg>