<?xml version="1.0" encoding="UTF-8"?>
<svg width="62px" height="62px" viewBox="0 0 62 62" version="1.1" xmlns="http://www.w3.org/2000/svg" xmlns:xlink="http://www.w3.org/1999/xlink">
    <!-- Generator: Sketch 50.1 (55044) - http://www.bohemiancoding.com/sketch -->
    <title>10d</title>
    <desc>Created with Sketch.</desc>
    <defs></defs>
    <g id="10d" stroke="none" stroke-width="1" fill="none" fill-rule="evenodd">
        <g transform="translate(0.000000, 5.000000)" fill="#FFFFFF">
            <path d="M34.9146906,21.43164 C34.9146906,21.43164 35.7015607,10.814812 25.9995675,9.60386097 C17.6840427,8.75207635 15.1542308,16.5021631 15.1542308,16.5021631 C15.1542308,16.5021631 12.6507026,14.0868512 9.2535265,16.0589715 C6.21282393,17.9421239 6.75164103,21.3871561 6.75164103,21.3871561 C6.75164103,21.3871561 0,22.7035505 0,29.6084428 C0.18562906,36.620426 7.28881538,36.4457854 7.28881538,36.4457854 L33.8567692,36.5166302 C33.8567692,36.5166302 40.2157966,36.5907701 41.3739248,30.0203309 C41.8223915,22.8485351 34.9146906,21.43164 34.9146906,21.43164 Z" id="Path"></path>
            <g id="Group-6" transform="translate(33.384615, 0.000000)">
                <path d="M20.0017384,22.0227119 C20.0017384,15.1019834 14.4433083,9.49423881 7.58344055,9.49423881 C6.42274364,9.49423881 3.95564181,9.87510439 1.52165543,11.1463268 C1.52165543,11.1496677 0,12.1937072 0,12.1937072 C0,12.1937072 2.40914978,14.4003889 2.61612141,20.2470097 C2.61612141,20.3505784 8.99747073,22.0026664 8.99747073,28.6845187 C8.99747073,33.2782922 6.58004208,34.5411623 6.58004208,34.5411623 L7.58344055,34.551185 C7.58344055,34.551185 20.0017384,31.9419217 20.0017384,22.0227119 Z" id="Path"></path>
                <polygon id="Path" points="7.45231872 0.583578726 3.96029337 7.63126247 10.9459999 7.63126247"></polygon>
                <polygon id="Path" points="22.2606845 6.52401878 14.8511001 9.01467924 19.7902711 13.9976706 22.2606845 6.52401878"></polygon>
                <polygon id="Path" points="20.7915402 25.4509122 27.7772467 21.9279055 20.7915402 18.4048989 20.7915402 25.4509122"></polygon>
                <polygon id="Path" points="14.8511001 34.2803675 22.2606845 36.771028 19.7919269 29.2957057"></polygon>
            </g>
            <path d="M18.8474041,42.5205733 C18.4990221,41.8315943 18.1876192,40.9032244 17.9151416,39.7393559 C17.6465566,40.9032244 17.3370999,41.829648 16.9887179,42.5205733 C16.2569211,43.9744357 15.0872138,45.1052175 15.0872138,45.1052175 C14.1549513,46.1425785 13.6897932,47.1818857 13.6897932,48.221193 C13.6897932,49.3694913 14.1062946,50.3523567 14.9373512,51.1756282 C15.7684077,51.9969534 16.7610045,52.407616 17.9131954,52.407616 C19.0731712,52.407616 20.065768,51.9969534 20.8968246,51.1756282 C21.7298274,50.3523567 22.1443825,49.3694913 22.1443825,48.221193 C22.1443825,47.183832 21.6792244,46.1445248 20.7489082,45.1052175 C20.7489082,45.1052175 19.5811472,43.9744357 18.8474041,42.5205733 Z" id="Path"></path>
            <path d="M31.5390194,39.7393559 C31.2684881,40.9032244 30.9609777,41.829648 30.6125957,42.5205733 C29.8807989,43.9744357 28.7091454,45.1052175 28.7091454,45.1052175 C27.7788291,46.1425785 27.313671,47.1818857 27.313671,48.221193 C27.313671,49.3694913 27.7282262,50.3523567 28.561229,51.1756282 C29.3903393,51.9969534 30.3829361,52.407616 31.5370731,52.407616 C32.697049,52.407616 33.6896458,51.9969534 34.5207024,51.1756282 C35.3537052,50.3523567 35.7682603,49.3694913 35.7682603,48.221193 C35.7682603,47.183832 35.3031022,46.1445248 34.3708397,45.1052175 C34.3708397,45.1052175 33.2030788,43.9744357 32.4712819,42.5205733 C32.1228999,41.8315943 31.811497,40.9032244 31.5390194,39.7393559 Z" id="Path"></path>
            <path d="M45.1628972,39.7393559 C44.8923659,40.9032244 44.5848555,41.829648 44.2364735,42.5205733 C43.5027304,43.9744357 42.3330232,45.1052175 42.3330232,45.1052175 C41.4027069,46.1425785 40.9375488,47.1818857 40.9375488,48.221193 C40.9375488,49.3694913 41.352104,50.3523567 42.1851068,51.1756282 C43.014217,51.9969534 44.0068139,52.407616 45.1609509,52.407616 C46.3209268,52.407616 47.3135236,51.9969534 48.1445802,51.1756282 C48.977583,50.3523567 49.3921381,49.3694913 49.3921381,48.221193 C49.3921381,47.183832 48.92698,46.1445248 47.9966638,45.1052175 C47.9966638,45.1052175 46.8269566,43.9744357 46.0951597,42.5205733 C45.7467777,41.8315943 45.4353748,40.9032244 45.1628972,39.7393559 Z" id="Path"></path>
        </g>
    </g>
</svg>