<?xml version="1.0" encoding="UTF-8"?>
<svg width="62px" height="62px" viewBox="0 0 62 62" version="1.1" xmlns="http://www.w3.org/2000/svg" xmlns:xlink="http://www.w3.org/1999/xlink">
    <!-- Generator: Sketch 50.1 (55044) - http://www.bohemiancoding.com/sketch -->
    <title>11d</title>
    <desc>Created with Sketch.</desc>
    <defs></defs>
    <g id="11d" stroke="none" stroke-width="1" fill="none" fill-rule="evenodd">
        <g transform="translate(6.000000, 8.000000)" fill="#FFFFFF" fill-rule="nonzero" id="Shape">
            <path d="M41.3260028,14.0871002 C41.3260028,14.0871002 42.257408,1.51353927 30.7752621,0.0774528593 C20.9323117,-0.931319799 17.9378147,8.24714555 17.9378147,8.24714555 C17.9378147,8.24714555 14.9763738,5.38667995 10.9532477,7.72227158 C7.3540179,9.95249817 7.99180687,14.0324665 7.99180687,14.0324665 C7.99180687,14.0324665 0,15.59343 0,23.7689763 C0.219726077,32.0772045 8.62765136,31.8684256 8.62765136,31.8684256 L17.5391966,31.8079383 L21.8053825,22.0167948 L34.2403229,22.2606953 L28.7102259,31.8508648 L40.0776475,31.9503762 C40.0776475,31.9503762 47.604724,32.0401316 48.9755814,24.2587286 C49.5025351,15.7631848 41.3260028,14.0871002 41.3260028,14.0871002 Z M31.09999,24.0070232 L23.082905,24.0070232 L17.9650374,35.7474199 L25.2996105,35.7474199 L19.3281169,49 L32.2919554,33.7162162 L25.4707246,33.7162162 L31.09999,24.0070232 Z"></path>
        </g>
    </g>
</svg>