<?xml version="1.0" encoding="UTF-8"?>
<svg width="62px" height="62px" viewBox="0 0 62 62" version="1.1" xmlns="http://www.w3.org/2000/svg" xmlns:xlink="http://www.w3.org/1999/xlink">
    <!-- Generator: Sketch 50.1 (55044) - http://www.bohemiancoding.com/sketch -->
    <title>13d</title>
    <desc>Created with Sketch.</desc>
    <defs></defs>
    <g id="13d" stroke="none" stroke-width="1" fill="none" fill-rule="evenodd">
        <g transform="translate(7.000000, 9.000000)" fill="#FFFFFF" fill-rule="nonzero" id="Shape">
            <path d="M40.482615,13.8747108 C40.482615,13.8747108 41.3950119,1.49071983 30.1471956,0.0762851123 C20.5051216,-0.917278409 17.5717368,8.12280438 17.5717368,8.12280438 C17.5717368,8.12280438 14.6726384,5.30546566 10.7316168,7.60776565 C7.2058407,9.8043674 7.83061357,13.8228226 7.83061357,13.8228226 C7.83061357,13.8228226 0,15.3583298 0,23.4106145 C0.17524117,31.4552119 8.50300631,31.535927 8.50300631,31.535927 L39.1359247,31.535927 C39.1359247,31.535927 46.884632,31.5436141 47.9760798,23.8929828 C48.4922793,15.5255252 40.482615,13.8747108 40.482615,13.8747108 Z M12.2440243,40.4741551 C14.7031151,36.6459568 14.1278669,36.1078566 10.5201846,38.8540892 C9.57540608,34.3936232 8.79063041,34.4205282 8.16585754,38.9386478 C4.37150526,36.4576217 3.83625778,37.0380012 6.55821029,40.6778644 C2.13718035,41.6310704 2.16384749,42.4228464 6.64202129,43.0551141 C4.18293053,46.8813906 4.76008351,47.4214126 8.36776585,44.67518 C9.31063953,49.135646 10.0954152,49.108741 10.7220929,44.5906214 C14.5164451,47.0716475 15.0516926,46.491268 12.3278353,42.849483 C16.7507701,41.8981987 16.7221981,41.1064228 12.2440243,40.4741551 Z M25.5775916,40.4741551 C28.0366823,36.6459568 27.4614341,36.1078566 23.8537518,38.8540892 C22.9089733,34.3936232 22.1241977,34.4205282 21.4994248,38.9386478 C17.7050725,36.4576217 17.169825,37.0380012 19.8917775,40.6778644 C15.4707476,41.6310704 15.4974147,42.4228464 19.9755885,43.0551141 C17.5164978,46.8813906 18.0936508,47.4214126 21.7013331,44.67518 C22.6442068,49.135646 23.4289825,49.108741 24.0556601,44.5906214 C27.8500124,47.0716475 28.3852599,46.491268 25.6614026,42.849483 C30.0843373,41.8981987 30.0557654,41.1064228 25.5775916,40.4741551 Z M38.9111588,40.4741551 C41.3702496,36.6459568 40.7950014,36.1078566 37.1873191,38.8540892 C36.2425406,34.3936232 35.4577649,34.4205282 34.832992,38.9386478 C31.0386398,36.4576217 30.5033923,37.0380012 33.2253448,40.6778644 C28.8043149,41.6310704 28.830982,42.4228464 33.3091558,43.0551141 C30.850065,46.8813906 31.4253132,47.4214126 35.0329956,44.67518 C35.977774,49.135646 36.7625497,49.108741 37.3892274,44.5906214 C41.1816748,47.0716475 41.7169223,46.491268 38.9949698,42.849483 C43.4179046,41.8981987 43.3893326,41.1064228 38.9111588,40.4741551 Z"></path>
        </g>
    </g>
</svg>